<svg width="353" height="350" viewBox="0 0 353 350" fill="none" xmlns="http://www.w3.org/2000/svg">
<path d="M121.512 122.512C150.233 122.545 177.768 133.973 198.077 154.291C218.385 174.608 229.809 202.155 229.842 230.888C229.842 232.138 230.338 233.336 231.221 234.22C232.105 235.104 233.303 235.6 234.552 235.6C235.801 235.6 236.999 235.104 237.882 234.22C238.765 233.336 239.262 232.138 239.262 230.888C239.294 202.155 250.718 174.608 271.027 154.291C291.336 133.973 318.871 122.545 347.592 122.512C348.841 122.512 350.039 122.016 350.922 121.132C351.806 120.248 352.302 119.05 352.302 117.8C352.302 116.55 351.806 115.352 350.922 114.468C350.039 113.584 348.841 113.088 347.592 113.088C318.871 113.055 291.336 101.627 271.027 81.3093C250.718 60.9919 239.294 33.4451 239.262 4.712C239.262 3.4623 238.765 2.26378 237.882 1.38011C236.999 0.496438 235.801 0 234.552 0C233.303 0 232.105 0.496438 231.221 1.38011C230.338 2.26378 229.842 3.4623 229.842 4.712C229.809 33.4451 218.385 60.9919 198.077 81.3093C177.768 101.627 150.233 113.055 121.512 113.088C120.263 113.088 119.065 113.584 118.181 114.468C117.298 115.352 116.802 116.55 116.802 117.8C116.802 119.05 117.298 120.248 118.181 121.132C119.065 122.016 120.263 122.512 121.512 122.512ZM234.552 42.6774C205.671 115.285 250.389 73.9835 264.369 87.9698C278.35 101.956 208.959 104.759 227.925 110.347C208.959 115.935 200.196 115.691 186.216 129.677C172.235 143.664 193.716 110.177 234.552 197.86C228.966 178.886 278.35 95.2956 264.369 81.3093C250.389 67.323 223.216 73.6774 154.525 117.8C173.491 112.212 253.235 164.664 267.216 150.677C281.196 136.691 228.966 61.6512 234.552 42.6774ZM0.454616 239.231C22.0705 193.118 55.4912 160.565 92.1478 149.914C93.3472 149.567 94.6353 149.711 95.729 150.313C96.8227 150.916 97.6326 151.928 97.9807 153.127C98.3288 154.327 98.1866 155.616 97.5853 156.711C96.9841 157.805 95.973 158.616 94.7742 158.966C60.7209 168.859 29.4506 199.574 8.98231 243.234C8.72122 243.797 8.35159 244.303 7.89465 244.722C7.4377 245.142 6.90244 245.467 6.31957 245.679C5.73671 245.891 5.11772 245.986 4.49815 245.958C3.87857 245.93 3.27061 245.78 2.70915 245.516C2.14769 245.253 1.6438 244.881 1.22638 244.422C0.808974 243.963 0.486268 243.426 0.27679 242.842C0.0673125 242.258 -0.024811 241.638 0.00570518 241.019C0.0362214 240.399 0.188777 239.791 0.454616 239.231ZM78.8849 204.935C77.9349 204.936 77.0069 204.649 76.2227 204.113C75.4385 203.577 74.8348 202.815 74.4908 201.93C74.1468 201.044 74.0786 200.074 74.2952 199.149C74.5117 198.224 75.0029 197.386 75.7043 196.745C93.8742 179.967 115.686 167.634 139.425 160.714C140.019 160.541 140.642 160.487 141.257 160.555C141.872 160.622 142.468 160.81 143.011 161.109C143.553 161.407 144.031 161.809 144.418 162.292C144.805 162.776 145.093 163.33 145.266 163.925C145.438 164.52 145.492 165.143 145.424 165.758C145.356 166.373 145.167 166.969 144.868 167.512C144.57 168.054 144.167 168.532 143.684 168.919C143.201 169.306 142.646 169.593 142.051 169.766C119.7 176.284 99.165 187.9 82.0609 203.702C81.1939 204.497 80.0606 204.937 78.8849 204.935ZM50.7927 344.519C58.4442 264.164 108.757 199.066 178.968 178.667C180.167 178.32 181.455 178.464 182.549 179.066C183.643 179.668 184.453 180.681 184.801 181.88C185.149 183.08 185.007 184.369 184.405 185.463C183.804 186.558 182.793 187.369 181.594 187.719C115.116 207.031 67.4548 268.929 60.1713 345.412C60.0601 346.578 59.5186 347.661 58.6525 348.45C57.7864 349.238 56.6578 349.676 55.4866 349.677C55.3371 349.677 55.1876 349.671 55.0359 349.657C53.7924 349.538 52.6469 348.93 51.8512 347.967C51.0556 347.003 50.6749 345.763 50.7927 344.519ZM205.671 219.978C184.608 226.358 165.335 237.591 149.398 252.775C133.461 267.958 121.305 286.668 113.906 307.403C113.462 308.568 112.573 309.51 111.436 310.021C110.299 310.532 109.005 310.571 107.839 310.129C106.673 309.688 105.73 308.801 105.216 307.665C104.702 306.528 104.66 305.234 105.098 304.067C122.579 257.878 158.279 223.931 203.044 210.927C203.639 210.753 204.261 210.699 204.876 210.767C205.492 210.834 206.088 211.023 206.63 211.321C207.173 211.619 207.651 212.021 208.038 212.505C208.425 212.988 208.713 213.543 208.885 214.137C209.058 214.732 209.112 215.355 209.044 215.97C208.975 216.586 208.787 217.182 208.488 217.724C208.189 218.266 207.787 218.745 207.304 219.131C206.82 219.518 206.265 219.806 205.671 219.978Z" fill="white"/>
</svg>
