<svg width="906" height="544" viewBox="0 0 906 544" fill="none" xmlns="http://www.w3.org/2000/svg">
<path d="M853.41 417.408C848.46 431.008 834.078 442.026 808.963 448.998C784.069 455.907 750.291 458.323 709.746 456.053C628.753 451.52 522.518 428.399 410.392 387.589C298.265 346.778 202.023 296.203 137.065 247.615C104.546 223.291 80.2236 199.728 65.5956 178.434C50.8374 156.95 46.9025 139.264 51.8523 125.665C56.8021 112.065 71.1846 101.047 96.2996 94.0754C121.193 87.1657 154.971 84.7498 195.517 87.0195C276.509 91.5532 382.744 114.674 494.871 155.484C606.997 196.295 703.239 246.87 768.198 295.458C800.716 319.782 825.039 343.345 839.667 364.639C854.425 386.123 858.36 403.809 853.41 417.408Z" stroke="url(#paint0_linear_21_22)" stroke-width="15"/>
<path d="M395.331 414.736C417.893 414.762 439.524 423.736 455.478 439.69C471.431 455.644 480.406 477.274 480.431 499.837C480.431 500.818 480.821 501.759 481.515 502.453C482.209 503.147 483.15 503.536 484.131 503.536C485.113 503.536 486.054 503.147 486.748 502.453C487.441 501.759 487.831 500.818 487.831 499.837C487.857 477.274 496.831 455.644 512.785 439.69C528.739 423.736 550.369 414.762 572.931 414.736C573.913 414.736 574.854 414.347 575.548 413.653C576.241 412.959 576.631 412.018 576.631 411.036C576.631 410.055 576.241 409.114 575.548 408.42C574.854 407.726 573.913 407.336 572.931 407.336C550.369 407.311 528.739 398.337 512.785 382.383C496.831 366.429 487.857 344.799 487.831 322.236C487.831 321.255 487.441 320.314 486.748 319.62C486.054 318.926 485.113 318.536 484.131 318.536C483.15 318.536 482.209 318.926 481.515 319.62C480.821 320.314 480.431 321.255 480.431 322.236C480.406 344.799 471.431 366.429 455.478 382.383C439.524 398.337 417.893 407.311 395.331 407.336C394.35 407.336 393.409 407.726 392.715 408.42C392.021 409.114 391.631 410.055 391.631 411.036C391.631 412.018 392.021 412.959 392.715 413.653C393.409 414.347 394.35 414.736 395.331 414.736ZM484.131 352.048C461.443 409.061 496.572 376.631 507.555 387.613C518.537 398.595 464.026 400.797 478.925 405.184C464.026 409.572 457.143 409.381 446.16 420.363C435.178 431.345 452.052 405.051 484.131 473.902C479.744 459.003 518.537 393.365 507.555 382.383C496.572 371.401 475.226 376.39 421.266 411.036C436.164 406.649 498.809 447.835 509.791 436.853C520.773 425.87 479.744 366.947 484.131 352.048Z" fill="#5B42F3"/>
<path d="M771.571 341.976C783.401 341.99 794.743 346.695 803.107 355.06C811.472 363.425 816.178 374.767 816.191 386.597C816.191 387.111 816.396 387.604 816.759 387.968C817.123 388.332 817.617 388.537 818.131 388.537C818.646 388.537 819.139 388.332 819.503 387.968C819.867 387.604 820.071 387.111 820.071 386.597C820.085 374.767 824.79 363.425 833.155 355.06C841.52 346.695 852.861 341.99 864.691 341.976C865.206 341.976 865.699 341.772 866.063 341.408C866.427 341.044 866.631 340.551 866.631 340.036C866.631 339.522 866.427 339.029 866.063 338.665C865.699 338.301 865.206 338.097 864.691 338.097C852.861 338.083 841.52 333.378 833.155 325.013C824.79 316.648 820.085 305.306 820.071 293.476C820.071 292.962 819.867 292.469 819.503 292.105C819.139 291.741 818.646 291.536 818.131 291.536C817.617 291.536 817.123 291.741 816.759 292.105C816.396 292.469 816.191 292.962 816.191 293.476C816.178 305.306 811.472 316.648 803.107 325.013C794.743 333.378 783.401 338.083 771.571 338.097C771.057 338.097 770.563 338.301 770.199 338.665C769.836 339.029 769.631 339.522 769.631 340.036C769.631 340.551 769.836 341.044 770.199 341.408C770.563 341.772 771.057 341.976 771.571 341.976ZM818.131 309.107C806.235 339.001 824.654 321.997 830.413 327.755C836.171 333.513 807.59 334.667 815.402 336.968C807.59 339.269 803.981 339.168 798.222 344.927C792.464 350.685 801.311 336.898 818.131 372.999C815.831 365.187 836.171 330.771 830.413 325.013C824.654 319.254 813.462 321.871 785.169 340.036C792.981 337.736 825.827 359.331 831.585 353.573C837.344 347.814 815.831 316.919 818.131 309.107Z" fill="#5B42F3"/>
<path d="M156.931 97.3365C170.956 97.3524 184.402 102.931 194.32 112.848C204.237 122.765 209.815 136.211 209.831 150.237C209.831 150.846 210.074 151.432 210.505 151.863C210.936 152.294 211.521 152.536 212.131 152.536C212.741 152.536 213.326 152.294 213.758 151.863C214.189 151.432 214.431 150.846 214.431 150.237C214.447 136.211 220.026 122.765 229.943 112.848C239.86 102.931 253.306 97.3524 267.331 97.3365C267.941 97.3365 268.526 97.0942 268.958 96.6628C269.389 96.2315 269.631 95.6465 269.631 95.0365C269.631 94.4265 269.389 93.8415 268.958 93.4102C268.526 92.9788 267.941 92.7365 267.331 92.7365C253.306 92.7205 239.86 87.1421 229.943 77.2248C220.026 67.3076 214.447 53.8616 214.431 39.8365C214.431 39.2265 214.189 38.6415 213.758 38.2102C213.326 37.7788 212.741 37.5365 212.131 37.5365C211.521 37.5365 210.936 37.7788 210.505 38.2102C210.074 38.6415 209.831 39.2265 209.831 39.8365C209.815 53.8616 204.237 67.3076 194.32 77.2248C184.402 87.1421 170.956 92.7205 156.931 92.7365C156.321 92.7365 155.736 92.9788 155.305 93.4102C154.874 93.8415 154.631 94.4265 154.631 95.0365C154.631 95.6465 154.874 96.2315 155.305 96.6628C155.736 97.0942 156.321 97.3365 156.931 97.3365ZM212.131 58.368C198.028 93.8088 219.865 73.649 226.692 80.4759C233.519 87.3028 199.634 88.6711 208.895 91.3986C199.634 94.1261 195.355 94.0071 188.528 100.834C181.701 107.661 192.19 91.3158 212.131 134.115C209.404 124.854 233.519 84.0518 226.692 77.2248C219.865 70.3979 206.596 73.4996 173.053 95.0365C182.314 92.309 221.255 117.911 228.082 111.084C234.909 104.258 209.404 67.6294 212.131 58.368Z" fill="#5B42F3"/>
<defs>
<linearGradient id="paint0_linear_21_22" x1="44.8046" y1="123.1" x2="860.458" y2="419.973" gradientUnits="userSpaceOnUse">
<stop stop-color="#5B42F3"/>
<stop offset="1" stop-color="#35268D"/>
</linearGradient>
</defs>
</svg>
